<svg xmlns="http://www.w3.org/2000/svg" width="25" height="25" viewBox="0 0 25 25"><symbol viewBox="0 -12 10 12"><g><path fill="#DB2B27" d="M5-5.134c-2.031 0-5-1.879-5-6.033v-.833h10v.832c0 4.153-2.969 6.034-5 6.034zM7.5-4l-.5-1h-4l-.5 1h-.5v2.312l.5.469 1.5 1.219h2l1.5-1.219.5-.469v-2.312z"/></g></symbol><g><path fill="#DC291E" d="M19.727 16.084l-2.849-2.849c.5-.891.788-1.915.788-3.007 0-3.4-2.766-6.167-6.167-6.167s-6.167 2.766-6.167 6.167c0 3.4 2.766 6.167 6.167 6.167 1.222 0 2.359-.362 3.318-.977l2.788 2.788c.293.293.677.439 1.061.439s.768-.146 1.061-.439c.586-.586.586-1.536 0-2.122zm-12.394-5.856c0-2.298 1.869-4.167 4.167-4.167s4.167 1.869 4.167 4.167c0 2.297-1.869 4.167-4.167 4.167s-4.167-1.869-4.167-4.167z"/></g></svg>